<?xml version="1.0" encoding="UTF-8" standalone="no"?>
<!-- Created with Inkscape (http://www.inkscape.org/) -->

<svg
   width="10"
   height="96"
   viewBox="0 0 2.6458332 25.399999"
   version="1.1"
   id="svg5"
   inkscape:version="1.2.1 (9c6d41e4, 2022-07-14)"
   sodipodi:docname="drawing2.svg"
   xmlns:inkscape="http://www.inkscape.org/namespaces/inkscape"
   xmlns:sodipodi="http://sodipodi.sourceforge.net/DTD/sodipodi-0.dtd"
   xmlns="http://www.w3.org/2000/svg"
   xmlns:svg="http://www.w3.org/2000/svg">
  <sodipodi:namedview
     id="namedview7"
     pagecolor="#505050"
     bordercolor="#ffffff"
     borderopacity="1"
     inkscape:showpageshadow="0"
     inkscape:pageopacity="0"
     inkscape:pagecheckerboard="1"
     inkscape:deskcolor="#505050"
     inkscape:document-units="mm"
     showgrid="false"
     inkscape:zoom="4"
     inkscape:cx="3"
     inkscape:cy="47.375"
     inkscape:window-width="1280"
     inkscape:window-height="747"
     inkscape:window-x="0"
     inkscape:window-y="25"
     inkscape:window-maximized="0"
     inkscape:current-layer="layer1" />
  <defs
     id="defs2" />
  <g
     inkscape:label="Layer 1"
     inkscape:groupmode="layer"
     id="layer1">
    <path
       id="rect799"
       style="fill:#51555b;fill-opacity:1;fill-rule:evenodd;stroke-width:0.697164"
       d="M 1.1978597 1.5875 L 1.1978597 1.5952515 L 1.4479736 1.5952515 L 1.4479736 1.5875 L 1.1978597 1.5875 z M 1.1978597 11.685075 L 1.1978597 11.689209 A 1.0191335 1.0191335 0 0 0 0.30385742 12.7 A 1.0191335 1.0191335 0 0 0 1.1978597 13.710791 L 1.1978597 23.193933 L 1.4479736 23.193933 L 1.4479736 13.710791 A 1.0191335 1.0191335 0 0 0 2.3419759 12.7 A 1.0191335 1.0191335 0 0 0 1.4479736 11.688692 L 1.4479736 11.685075 L 1.1978597 11.685075 z M 1.3229167 11.956376 A 0.74403002 0.74403002 0 0 1 2.0665405 12.7 A 0.74403002 0.74403002 0 0 1 1.3229167 13.443624 A 0.74403002 0.74403002 0 0 1 0.57929281 12.7 A 0.74403002 0.74403002 0 0 1 1.3229167 11.956376 z M 1.1978597 23.895699 L 1.1978597 23.911719 L 1.4479736 23.911719 L 1.4479736 23.895699 L 1.1978597 23.895699 z M 1.1978597 25.464596 L 1.1978597 25.466146 L 1.4479736 25.466146 L 1.4479736 25.464596 L 1.1978597 25.464596 z " />
  </g>
</svg>
